<svg xmlns="http://www.w3.org/2000/svg" viewBox="0 0 200 200">
  <!-- Dark blue background -->
  <rect width="200" height="200" rx="24" fill="#1a2332"/>
  <!-- 12 EU Stars in a circle around the lock -->
  <g fill="#FFD700" transform="translate(100,78)">
    <polygon points="0,-42 2.3,-35 8.5,-35 3.5,-30 5.5,-23 0,-27.5 -5.5,-23 -3.5,-30 -8.5,-35 -2.3,-35" />
    <polygon points="21,-36.4 23.3,-29.4 29.5,-29.4 24.5,-24.4 26.5,-17.4 21,-21.9 15.5,-17.4 17.5,-24.4 12.5,-29.4 18.7,-29.4" />
    <polygon points="36.4,-21 38.7,-14 44.9,-14 39.9,-9 41.9,-2 36.4,-6.5 30.9,-2 32.9,-9 27.9,-14 34.1,-14" />
    <polygon points="42,0 44.3,7 50.5,7 45.5,12 47.5,19 42,14.5 36.5,19 38.5,12 33.5,7 39.7,7" />
    <polygon points="36.4,21 38.7,28 44.9,28 39.9,33 41.9,40 36.4,35.5 30.9,40 32.9,33 27.9,28 34.1,28" />
    <polygon points="21,36.4 23.3,43.4 29.5,43.4 24.5,48.4 26.5,55.4 21,50.9 15.5,55.4 17.5,48.4 12.5,43.4 18.7,43.4" />
    <polygon points="0,42 2.3,49 8.5,49 3.5,54 5.5,61 0,56.5 -5.5,61 -3.5,54 -8.5,49 -2.3,49" />
    <polygon points="-21,36.4 -18.7,43.4 -12.5,43.4 -17.5,48.4 -15.5,55.4 -21,50.9 -26.5,55.4 -24.5,48.4 -29.5,43.4 -23.3,43.4" />
    <polygon points="-36.4,21 -34.1,28 -27.9,28 -32.9,33 -30.9,40 -36.4,35.5 -41.9,40 -39.9,33 -44.9,28 -38.7,28" />
    <polygon points="-42,0 -39.7,7 -33.5,7 -38.5,12 -36.5,19 -42,14.5 -47.5,19 -45.5,12 -50.5,7 -44.3,7" />
    <polygon points="-36.4,-21 -34.1,-14 -27.9,-14 -32.9,-9 -30.9,-2 -36.4,-6.5 -41.9,-2 -39.9,-9 -44.9,-14 -38.7,-14" />
    <polygon points="-21,-36.4 -18.7,-29.4 -12.5,-29.4 -17.5,-24.4 -15.5,-17.4 -21,-21.9 -26.5,-17.4 -24.5,-24.4 -29.5,-29.4 -23.3,-29.4" />
  </g>
  <!-- Lock icon -->
  <g transform="translate(100,78)" fill="none" stroke="white" stroke-width="3.5">
    <!-- Lock body -->
    <rect x="-14" y="-6" width="28" height="22" rx="3" fill="white" stroke="none"/>
    <!-- Lock shackle -->
    <path d="M-9,-6 L-9,-14 C-9,-22 9,-22 9,-14 L9,-6" stroke-linecap="round"/>
    <!-- Keyhole -->
    <circle cx="0" cy="4" r="4" fill="#1a2332" stroke="none"/>
    <rect x="-1.5" y="4" width="3" height="7" rx="1" fill="#1a2332" stroke="none"/>
  </g>
  <!-- GDPR Text -->
  <text x="100" y="150" text-anchor="middle" fill="white" font-family="Arial, sans-serif" font-size="28" font-weight="bold" letter-spacing="4">GDPR</text>
  <!-- Subtitle -->
  <text x="100" y="170" text-anchor="middle" fill="#8899aa" font-family="Arial, sans-serif" font-size="8" letter-spacing="1.5">GENERAL DATA PROTECTION REGULATION</text>
</svg>
